<?xml version="1.0" encoding="UTF-8"?>
<svg id="Layer_1" data-name="Layer 1" xmlns="http://www.w3.org/2000/svg" viewBox="0 0 92 15">
  <defs>
    <style>
      .cls-1 {
        fill: #707070;
        stroke-width: 0px;
      }
    </style>
  </defs>
  <path class="cls-1" d="M11.3,6.93c.75-.63,1.14-1.53,1.14-2.67,0-1.44-.6-3.86-4.61-3.86H0v14.2h8.28c3.24,0,4.72-2.26,4.72-4.35,0-1.52-.59-2.66-1.7-3.31ZM3.14,11.71v-3.06h4.78c1.29,0,1.94.49,1.94,1.47,0,.69-.22,1.59-2.1,1.59H3.14ZM9.3,4.55c0,1-.82,1.21-1.5,1.21H3.14v-2.48h4.54c1.49,0,1.61.65,1.61,1.27Z"/>
  <path class="cls-1" d="M19.72,3.52c-3.05,0-6.14,1.76-6.14,5.7s3.08,5.7,6.14,5.7,6.14-1.76,6.14-5.7-3.08-5.7-6.14-5.7ZM19.72,12.18c-2.78,0-3-2.26-3-2.96s.22-2.96,3-2.96,3,2.26,3,2.96-.22,2.96-3,2.96Z"/>
  <path class="cls-1" d="M32.6,3.52c-3.05,0-6.14,1.76-6.14,5.7s3.08,5.7,6.14,5.7,6.14-1.76,6.14-5.7-3.08-5.7-6.14-5.7ZM32.6,12.18c-2.78,0-3-2.26-3-2.96s.22-2.96,3-2.96,3,2.26,3,2.96-.22,2.96-3,2.96Z"/>
  <polygon class="cls-1" points="45.73 8.13 50.97 14.6 46.93 14.6 43.32 10.08 42.35 10.85 42.35 14.6 39.32 14.6 39.32 .29 42.35 .29 42.35 7.23 46.37 3.85 51.08 3.85 45.73 8.13"/>
  <rect class="cls-1" x="51.69" y="3.85" width="3.03" height="10.74"/>
  <rect class="cls-1" x="51.69" y=".14" width="3.03" height="2.78"/>
  <path class="cls-1" d="M60.42,6.48v5.27c0,.2,0,.43.87.43.32,0,.68-.04,1.15-.12l.71-.12v2.76l-.5.09c-.64.11-1.32.14-2.14.14-2.01,0-3.12-1.02-3.12-2.86v-5.58h-1.97v-2.63h1.97V.06h3.03v3.79h2.73v2.63h-2.73Z"/>
  <path class="cls-1" d="M89.27,6.48v5.27c0,.2,0,.43.87.43.32,0,.68-.04,1.15-.12l.71-.12v2.76l-.5.09c-.64.11-1.32.14-2.14.14-2.01,0-3.12-1.02-3.12-2.86v-5.58h-1.97v-2.63h1.97V.06h3.03v3.79h2.73v2.63h-2.73Z"/>
  <rect class="cls-1" x="64.59" width="3.03" height="14.74"/>
  <rect class="cls-1" x="68.91" y=".14" width="3.03" height="2.78"/>
  <rect class="cls-1" x="68.91" y="3.85" width="3.03" height="10.74"/>
  <path class="cls-1" d="M72.98,11.03c.13,1.78,1.18,3.89,5.48,3.89,3.42,0,5.39-1.41,5.39-3.86,0-2.6-2.9-3-3.85-3.13l-2.58-.35c-1.06-.15-1.06-.35-1.06-.58,0-.81,1.59-.85,1.9-.85,1.35,0,2.21.46,2.25,1.21l3.03-.09c-.12-1.4-.97-3.76-5.26-3.76-3.05,0-4.95,1.41-4.95,3.68,0,1.62,1.25,2.88,3.11,3.13l3,.4c1.28.18,1.28.44,1.28.67,0,.55-.86.88-2.3.88s-2.4-.49-2.4-1.3"/>
</svg>