<?xml version="1.0" encoding="UTF-8"?>
<svg id="Layer_1" data-name="Layer 1" xmlns="http://www.w3.org/2000/svg" viewBox="0 0 119 20">
  <defs>
    <style>
      .cls-1 {
        fill: #2626bf;
        stroke-width: 0px;
      }
    </style>
  </defs>
  <path class="cls-1" d="M14.62,9.31c.97-.81,1.47-1.98,1.47-3.45,0-1.87-.77-5-5.96-5H0v18.37h10.71c4.19,0,6.1-2.92,6.1-5.63,0-1.96-.77-3.44-2.2-4.29ZM4.06,15.5v-3.96h6.18c1.67,0,2.51.64,2.51,1.9,0,.89-.28,2.06-2.72,2.06h-5.97ZM12.02,6.23c0,1.3-1.05,1.57-1.95,1.57h-6.02v-3.21h5.87c1.93,0,2.09.85,2.09,1.64Z"/>
  <path class="cls-1" d="M25.51,4.91c-3.95,0-7.94,2.28-7.94,7.37s3.99,7.37,7.94,7.37,7.94-2.28,7.94-7.37-3.98-7.37-7.94-7.37ZM25.51,16.11c-3.59,0-3.87-2.93-3.87-3.83s.28-3.83,3.87-3.83,3.87,2.93,3.87,3.83-.28,3.83-3.87,3.83Z"/>
  <path class="cls-1" d="M42.16,4.91c-3.95,0-7.94,2.28-7.94,7.37s3.99,7.37,7.94,7.37,7.94-2.28,7.94-7.37-3.98-7.37-7.94-7.37ZM42.16,16.11c-3.59,0-3.87-2.93-3.87-3.83s.28-3.83,3.87-3.83,3.87,2.93,3.87,3.83-.28,3.83-3.87,3.83Z"/>
  <polygon class="cls-1" points="59.15 10.87 65.93 19.23 60.71 19.23 56.04 13.38 54.78 14.38 54.78 19.23 50.86 19.23 50.86 .72 54.78 .72 54.78 9.7 59.97 5.33 66.07 5.33 59.15 10.87"/>
  <rect class="cls-1" x="66.86" y="5.33" width="3.92" height="13.9"/>
  <rect class="cls-1" x="66.86" y=".53" width="3.92" height="3.6"/>
  <path class="cls-1" d="M78.16,8.73v6.82c0,.26,0,.56,1.12.56.42,0,.88-.05,1.49-.15l.92-.16v3.57l-.65.11c-.83.15-1.71.18-2.77.18-2.6,0-4.03-1.31-4.03-3.7v-7.21h-2.54v-3.4h2.54V.43h3.92v4.9h3.53v3.4h-3.53Z"/>
  <path class="cls-1" d="M115.47,8.73v6.82c0,.26,0,.56,1.12.56.42,0,.88-.05,1.49-.15l.92-.16v3.57l-.65.11c-.83.15-1.71.18-2.77.18-2.6,0-4.03-1.31-4.03-3.7v-7.21h-2.54v-3.4h2.54V.43h3.92v4.9h3.53v3.4h-3.53Z"/>
  <rect class="cls-1" x="83.54" y=".35" width="3.92" height="19.07"/>
  <rect class="cls-1" x="89.14" y=".53" width="3.92" height="3.6"/>
  <rect class="cls-1" x="89.14" y="5.33" width="3.92" height="13.9"/>
  <path class="cls-1" d="M94.4,14.62c.17,2.3,1.53,5.03,7.09,5.03,4.43,0,6.97-1.82,6.97-5,0-3.37-3.75-3.88-4.99-4.05l-3.34-.45c-1.37-.19-1.37-.45-1.37-.75,0-1.05,2.05-1.1,2.46-1.1,1.74,0,2.86.6,2.91,1.57l3.92-.11c-.16-1.81-1.26-4.86-6.8-4.86-3.95,0-6.41,1.82-6.41,4.76,0,2.1,1.62,3.73,4.02,4.05l3.88.52c1.65.23,1.65.57,1.65.87,0,.72-1.11,1.14-2.98,1.14s-3.1-.63-3.1-1.68"/>
</svg>